<?xml version="1.0" encoding="UTF-8" standalone="no"?>
<!-- Created with Inkscape (http://www.inkscape.org/) -->
<svg xmlns:dc="http://purl.org/dc/elements/1.1/" xmlns:cc="http://creativecommons.org/ns#" xmlns:rdf="http://www.w3.org/1999/02/22-rdf-syntax-ns#" xmlns:svg="http://www.w3.org/2000/svg" xmlns="http://www.w3.org/2000/svg" xmlns:sodipodi="http://sodipodi.sourceforge.net/DTD/sodipodi-0.dtd" xmlns:inkscape="http://www.inkscape.org/namespaces/inkscape" id="svg2" version="1.1" inkscape:version="0.91 r13725" xml:space="preserve" width="393.54999" height="128.8" viewBox="0 0 393.54999 128.8" sodipodi:docname="logo-fpv24-big.svg"><metadata id="metadata8"><rdf:RDF><cc:Work rdf:about=""><dc:format>image/svg+xml</dc:format><dc:type rdf:resource="http://purl.org/dc/dcmitype/StillImage"/><dc:title/></cc:Work></rdf:RDF></metadata><defs id="defs6"/><sodipodi:namedview pagecolor="#ffffff" bordercolor="#666666" borderopacity="1" objecttolerance="10" gridtolerance="10" guidetolerance="10" inkscape:pageopacity="0" inkscape:pageshadow="2" inkscape:window-width="1863" inkscape:window-height="1896" id="namedview4" showgrid="false" inkscape:zoom="0.93253719" inkscape:cx="-8.0425747" inkscape:cy="278.86866" inkscape:window-x="1977" inkscape:window-y="24" inkscape:window-maximized="1" inkscape:current-layer="g12"/><g id="g10" inkscape:groupmode="layer" inkscape:label="ink_ext_XXXXXX" transform="matrix(1.25,0,0,-1.25,0,128.8)"><g id="g12" transform="scale(0.1,0.1)"><path d="m 400.273,311.063 -203.632,0 -44.879,-224.731 -128.4651,0 111.5981,558.363 368.535,0 -19.95,-99.707 -240.062,0 -26.848,-134.222 203.645,0 -19.942,-99.703" style="fill:#2d49a4;fill-opacity:1;fill-rule:nonzero;stroke:none" id="path14" inkscape:connector-curvature="0"/><path d="m 633.438,377.406 86.285,0 c 23.007,0 42.812,7.852 59.437,23.574 16.633,15.731 27.363,35.473 32.219,59.258 5.121,26.071 2.93,46.711 -6.524,61.934 -9.457,15.207 -26.71,22.816 -51.773,22.816 l -85.894,0 -33.75,-167.582 z m -19.942,-99.715 -37.969,-191.359 -128.464,0 111.585,558.363 214.375,0 c 58.047,0 102.973,-17.199 134.797,-51.574 31.832,-34.391 42.379,-78.426 31.637,-132.117 C 927.711,402.719 900.668,357.586 858.352,325.625 816.031,293.668 763.184,277.691 699.781,277.691 l -86.285,0" style="fill:#2d49a4;fill-opacity:1;fill-rule:nonzero;stroke:none" id="path16" inkscape:connector-curvature="0"/><path d="m 1903.87,86.0352 -530.17,0 13.06,82.0348 191.64,183.45 c 23.87,25.351 42,47.968 54.45,67.863 12.42,19.883 19.87,37.164 22.36,51.816 3.48,21.633 1.74,38.469 -5.22,50.539 -6.96,12.035 -19.65,18.071 -38.02,18.071 -15.42,0 -29.1,-8.071 -41.03,-24.227 -11.93,-16.164 -19.9,-36.543 -23.86,-61.148 l -121.56,0 -0.74,2.23 c 7.21,52.203 29.41,95.258 66.57,129.199 37.15,33.922 82.46,50.887 135.9,50.887 54.43,0 95.56,-14.793 123.42,-44.367 27.83,-29.582 37.77,-69.594 29.8,-120.063 -5.71,-35.797 -18.61,-66.242 -38.78,-91.34 -20.11,-25.117 -57.39,-64.136 -111.83,-117.093 l -75.32,-78.672 1.13,-2.231 363.85,0 -15.65,-96.9488" style="fill:#2d49a4;fill-opacity:1;fill-rule:nonzero;stroke:none" id="path18" inkscape:connector-curvature="0"/><path d="m 1903.23,317.176 104.87,0 38.59,144.332 -2.61,1.133 -11.4,-11.942 -129.45,-133.523 z m 230.95,0 77.04,0 -23.25,-96.922 -70.94,0 -25.76,-134.2188 -127.56,0 28.22,134.2188 -233.07,0 9.67,76.957 272.62,329.848 1.91,1.871 153.67,0 -62.55,-311.754" style="fill:#2d49a4;fill-opacity:1;fill-rule:nonzero;stroke:none" id="path20" inkscape:connector-curvature="0"/><path d="m 2273.1,89.9805 -67.95,0 11.69,58.3205 67.97,0 -11.71,-58.3205" style="fill:#444142;fill-opacity:1;fill-rule:nonzero;stroke:none" id="path22" inkscape:connector-curvature="0"/><path d="m 2420.1,139.051 c 7.81,0 13.93,2.527 18.39,7.597 4.45,5.055 7.49,12.532 9.13,22.379 l 62.44,0 0.4,-1.23 c -3.55,-25.328 -14.47,-45.352 -32.74,-60.047 -18.29,-14.7187 -40.29,-22.082 -66.02,-22.082 -30.39,0 -52.81,10.5859 -67.25,31.715 -14.44,21.156 -18.99,48.219 -13.65,81.203 l 0.62,4.719 c 5.48,34.504 18.31,61.937 38.49,82.34 20.18,20.39 46.15,30.593 77.93,30.593 25.59,0 45.29,-7.941 59.04,-23.816 13.75,-15.875 18.23,-37.289 13.44,-64.262 l -0.6,-1.027 -62.85,0 c 1.64,11.222 1.21,19.976 -1.34,26.285 -2.52,6.285 -7.91,9.437 -16.13,9.437 -10.81,0 -19.44,-5.48 -25.86,-16.429 -6.44,-10.938 -11.03,-25.328 -13.75,-43.121 l -0.61,-4.719 c -3.17,-19.43 -3.4,-34.223 -0.73,-44.344 2.67,-10.125 9.89,-15.191 21.65,-15.191" style="fill:#444142;fill-opacity:1;fill-rule:nonzero;stroke:none" id="path24" inkscape:connector-curvature="0"/><path d="m 2602.65,198.797 c -3.29,-19.438 -3.38,-34.254 -0.3,-44.442 3.06,-10.207 10.76,-15.304 23.1,-15.304 11.22,0 20.18,5.363 26.87,16.129 6.73,10.742 11.6,25.281 14.58,43.617 l 0.63,4.312 c 3.03,18.879 3.03,33.555 0,44.043 -3,10.469 -10.53,15.703 -22.57,15.703 -11.39,0 -20.46,-5.507 -27.3,-16.523 -6.85,-11.031 -11.65,-25.437 -14.38,-43.223 l -0.63,-4.312 z m -67.98,4.312 c 5.5,34.629 18.56,62.133 39.23,82.536 20.66,20.39 47.17,30.593 79.49,30.593 30.63,0 53.39,-10.605 68.23,-31.824 14.86,-21.226 19.67,-48.32 14.48,-81.305 l -0.59,-4.312 c -5.63,-34.774 -18.76,-62.317 -39.42,-82.645 -20.69,-20.3122 -47.04,-30.484 -79.06,-30.484 -30.79,0 -53.66,10.5859 -68.58,31.715 -14.92,21.156 -19.73,48.285 -14.39,81.414 l 0.61,4.312" style="fill:#444142;fill-opacity:1;fill-rule:nonzero;stroke:none" id="path26" inkscape:connector-curvature="0"/><path d="m 2850.06,285.438 c 8.35,9.992 17.86,17.625 28.55,22.882 10.67,5.278 22.37,7.918 35.1,7.918 11.35,0 21.09,-2.914 29.15,-8.73 8.1,-5.813 13.49,-14.547 16.23,-26.18 8.49,11.371 18.29,20.02 29.46,25.985 11.18,5.945 23.5,8.925 37.07,8.925 18.76,0 32.66,-7.578 41.78,-22.683 9.11,-15.133 10.62,-37.887 4.59,-68.274 l -27.07,-135.3005 -68.98,0 27.1,135.3005 c 3,15.477 3.23,25.598 0.69,30.387 -2.54,4.793 -7.69,7.187 -15.5,7.187 -5.19,0 -10.2,-1.16 -14.97,-3.484 -4.79,-2.34 -9.17,-5.543 -13.16,-9.656 -0.26,-1.922 -0.55,-3.828 -0.92,-5.735 -0.32,-1.933 -0.65,-3.863 -0.92,-5.761 l -29.54,-148.2385 -68.6,0 27.11,135.3005 c 2.99,15.477 3.26,25.598 0.72,30.387 -2.52,4.793 -7.83,7.187 -15.92,7.187 -4.76,0 -9.51,-1.14 -14.15,-3.382 -4.68,-2.262 -9.05,-5.45 -13.16,-9.567 l -32.01,-159.9255 -68.62,0 44.35,222.1445 64.51,0 -2.89,-26.687" style="fill:#444142;fill-opacity:1;fill-rule:nonzero;stroke:none" id="path28" inkscape:connector-curvature="0"/><path d="m 1470.45,893.48 c 32.98,-17.054 51.73,-50.683 51.45,-85.425 7.11,37.508 -10.73,76.769 -46.36,95.211 -35.68,18.437 -77.99,10.297 -104.5,-17.203 28.19,20.3 66.46,24.472 99.41,7.417" style="fill:#444142;fill-opacity:1;fill-rule:nonzero;stroke:none" id="path30" inkscape:connector-curvature="0"/><path d="m 1496.22,930.223 c 52.71,-27.262 82.63,-80.985 82.21,-136.512 11.35,59.945 -17.12,122.676 -74.08,152.133 -56.98,29.453 -124.62,16.461 -166.97,-27.461 45.04,32.437 106.19,39.062 158.84,11.84" style="fill:#444142;fill-opacity:1;fill-rule:nonzero;stroke:none" id="path32" inkscape:connector-curvature="0"/><path d="m 1524.18,992.402 c 63.53,-32.851 99.63,-97.691 99.12,-164.64 13.71,72.304 -20.65,147.968 -89.36,183.528 -68.75,35.53 -150.34,19.84 -201.44,-33.13 54.33,39.09 128.1,47.13 191.68,14.242" style="fill:#444142;fill-opacity:1;fill-rule:nonzero;stroke:none" id="path34" inkscape:connector-curvature="0"/><path d="m 1340.6,787.828 c 0,42.227 34.26,76.477 76.51,76.477 42.24,0 76.48,-34.25 76.48,-76.477 0,-42.258 -34.24,-76.504 -76.48,-76.504 -42.25,0 -76.51,34.246 -76.51,76.504" style="fill:#444142;fill-opacity:1;fill-rule:nonzero;stroke:none" id="path36" inkscape:connector-curvature="0"/><path d="m 1078.63,645.32 -120.532,0 67.482,-558.988 138.45,0 289.1,605.434 c -8.81,-4.813 -18.47,-8.227 -30.73,-9.871 -34.48,-4.629 -61.43,6.832 -86.78,39.011 l -206.88,-511.879 -7.69,-17.187 -2.29,0.39 -40.13,453.09" style="fill:#0061FF;fill-opacity:1;fill-rule:nonzero;stroke:none" id="path38" inkscape:connector-curvature="0"/><path style="fill:#0061FF;fill-opacity:1" d="M 3.9650214,115.38993 C 4.2190341,114.0629 7.2808744,98.621157 10.769111,81.07494 l 6.342248,-31.902213 22.414498,0 22.414498,0 -0.664678,4.021287 c -0.365572,2.211708 -0.669988,4.611231 -0.676479,5.332274 -0.0086,0.957025 -4.131167,1.391317 -15.268921,1.608514 l -15.25712,0.297529 -1.182913,5.361717 c -0.650602,2.948944 -1.493707,6.930018 -1.873565,8.846832 l -0.690651,3.485116 12.913574,0 c 11.793749,0 12.86577,0.162732 12.362313,1.8766 -0.303192,1.032131 -0.871969,3.68618 -1.263947,5.897889 l -0.712689,4.021287 -12.676515,0 c -11.149826,0 -12.742319,0.226007 -13.222906,1.876601 -0.300516,1.03213 -1.60709,7.305338 -2.903499,13.940467 l -2.357106,12.06386 -7.481037,0 c -7.1800577,0 -7.462455,-0.0971 -7.0191946,-2.41277 z" id="path4212" inkscape:connector-curvature="0" transform="matrix(8,0,0,-8,0,1030.4)"/><path style="fill:#0061FF;fill-opacity:1" d="m 56.69759,115.9261 c 0.299251,-1.03213 3.25605,-15.62941 6.570664,-32.438388 3.314614,-16.808981 6.281332,-31.437506 6.592707,-32.507832 0.52295,-1.797609 1.935683,-1.920303 18.520941,-1.608515 17.908298,0.336659 17.965298,0.345539 22.002518,3.427836 6.79117,5.184859 8.67511,12.908339 5.40762,22.16939 -2.2756,6.449732 -6.1752,11.19215 -12.01928,14.617012 -4.316796,2.52981 -6.532833,3.007717 -16.271235,3.509024 l -11.273824,0.580346 -1.905786,9.651087 c -3.180498,16.10637 -1.986041,14.47664 -10.610182,14.47664 -6.690698,0 -7.495784,-0.2154 -7.014143,-1.8766 z M 94.317244,80.896422 c 6.875496,-2.872767 10.291796,-12.683752 6.183346,-17.757467 -1.810405,-2.235757 -3.240336,-2.685063 -9.708457,-3.050545 -7.248592,-0.409582 -7.611517,-0.316249 -8.174865,2.102342 -1.247891,5.357507 -3.800036,18.267457 -3.800036,19.222379 0,1.559801 11.443215,1.178329 15.500012,-0.516709 z" id="path4214" inkscape:connector-curvature="0" transform="matrix(8,0,0,-8,0,1030.4)"/><path style="fill:#0061FF;fill-opacity:1" d="m 124.60232,84.29197 c -2.19922,-18.430901 -3.99073,-34.113921 -3.98114,-34.851157 0.0121,-0.929955 2.10513,-1.340429 6.83491,-1.340429 l 6.81747,0 0.62583,6.165973 c 0.34421,3.391286 1.46855,16.17898 2.49854,28.417098 1.02998,12.238117 2.20232,22.251125 2.60519,22.251125 0.40288,0 6.66166,-14.693109 13.9084,-32.651352 l 13.1759,-32.651349 2.65646,2.089566 c 1.46104,1.149261 4.28031,2.089565 6.26503,2.089565 1.98473,0 3.61815,0.361916 3.62983,0.804258 0.0117,0.442341 -7.78132,17.090471 -17.31778,36.995843 l -17.33902,36.191589 -8.19053,0 -8.19052,0 -3.99857,-33.51073 z" id="path4216" inkscape:connector-curvature="0" transform="matrix(8,0,0,-8,0,1030.4)"/><path style="fill:#0061FF;fill-opacity:1" d="m 172.86,113.24524 c 0.5016,-4.19594 1.71869,-5.70581 15.34319,-19.034095 14.95044,-14.625407 19.29524,-20.635146 19.29524,-26.689266 0,-9.214078 -11.7134,-8.163282 -13.61195,1.221113 -0.58128,2.873219 -0.78591,2.948944 -7.96896,2.948944 -8.2506,0 -8.43431,-0.239455 -5.36592,-6.994029 2.43526,-5.36086 8.03191,-11.058998 12.83183,-13.064535 5.28391,-2.207757 16.66455,-1.976805 20.75931,0.421277 7.54989,4.421568 9.94713,12.186347 6.74175,21.836851 -1.56156,4.701424 -4.0441,7.87898 -14.75358,18.883993 l -12.8761,13.231427 23.27922,0 c 21.65191,0 23.24323,0.13118 22.76442,1.8766 -0.28314,1.03213 -0.82008,3.68618 -1.19319,5.89789 l -0.6784,4.02129 -32.55584,0 -32.55584,0 0.54482,-4.55746 z" id="path4218" inkscape:connector-curvature="0" transform="matrix(8,0,0,-8,0,1030.4)"/><path style="fill:#0061FF;fill-opacity:1" d="m 246.11954,116.99844 c 0.009,-0.44234 0.71585,-3.69958 1.57031,-7.23832 0.85446,-3.53873 1.57076,-7.03725 1.59177,-7.77449 0.0287,-1.00845 -3.57051,-1.34043 -14.5327,-1.34043 l -14.57089,0 0.76415,-4.522926 c 0.63679,-3.769166 3.61568,-7.96885 17.87469,-25.200067 l 17.11055,-20.677137 9.02815,0 c 4.96548,0 9.02814,0.159574 9.02814,0.354609 0,0.195034 -1.68894,8.721441 -3.7532,18.94757 -2.06426,10.22613 -3.7532,18.993813 -3.7532,19.483742 0,0.489929 2.12149,0.890781 4.71444,0.890781 l 4.71444,0 -1.29368,5.09363 c -1.26299,4.972799 -1.40014,5.101448 -5.78176,5.423128 -3.61591,0.26547 -4.58506,0.78645 -4.98707,2.68086 -0.27444,1.29325 -1.03474,5.12605 -1.68956,8.51733 l -1.19058,6.16598 -7.43038,0 c -4.08671,0 -7.42284,-0.36192 -7.41362,-0.80426 z m 6.44462,-31.634127 c 0.65028,-2.506603 1.63129,-6.2464 2.18004,-8.310661 1.89563,-7.130971 0.97361,-6.886999 -8.10524,2.144687 -5.01321,4.987162 -9.11492,9.440137 -9.11492,9.8955 0,0.455363 3.118,0.827933 6.9289,0.827933 l 6.9289,0 1.18232,-4.557459 z" id="path4220" inkscape:connector-curvature="0" transform="matrix(8,0,0,-8,0,1030.4)"/></g></g></svg>